<?xml version="1.0" standalone="no"?>
<!DOCTYPE svg PUBLIC "-//W3C//DTD SVG 20010904//EN"
 "http://www.w3.org/TR/2001/REC-SVG-20010904/DTD/svg10.dtd">
<svg version="1.0" xmlns="http://www.w3.org/2000/svg"
 width="1060.000000pt" height="675.000000pt" viewBox="0 0 1060.000000 675.000000"
 preserveAspectRatio="xMidYMid meet">
<metadata>
Created by potrace 1.15, written by Peter Selinger 2001-2017
</metadata>
<g transform="translate(0.000000,675.000000) scale(0.100000,-0.100000)"
fill="#000000" stroke="none">
<path d="M7066 3713 l-96 -98 40 -40 40 -40 100 100 100 99 -37 38 c-20 21
-40 38 -44 38 -4 0 -50 -44 -103 -97z"/>
<path d="M3022 3609 l3 -60 120 -2 120 -2 3 -372 2 -373 54 0 c50 0 54 2 60
26 4 15 6 183 5 373 l-1 346 118 2 119 2 3 61 3 60 -306 0 -306 0 3 -61z"/>
<path d="M3916 3405 c-49 -17 -113 -78 -137 -130 -25 -54 -27 -266 -3 -323 19
-47 67 -97 119 -125 35 -19 56 -22 175 -22 130 0 137 1 182 28 58 34 95 81
114 143 18 62 18 208 -1 270 -8 27 -15 50 -15 52 0 1 7 2 15 2 12 0 15 13 15
60 l0 60 -212 0 c-155 -1 -224 -5 -252 -15z m273 -123 c53 -28 71 -72 71 -170
0 -144 -33 -181 -170 -189 -96 -6 -151 8 -184 48 -24 29 -26 37 -26 138 0 121
12 150 74 177 48 21 194 18 235 -4z"/>
<path d="M4668 3408 c-47 -13 -113 -69 -140 -122 -18 -33 -23 -63 -26 -151 -2
-64 1 -128 7 -152 16 -57 68 -123 121 -153 42 -23 55 -25 180 -25 120 0 140 2
176 22 53 28 107 91 122 142 17 57 15 238 -3 292 -20 57 -86 123 -144 144 -49
17 -232 19 -293 3z m255 -122 c62 -26 72 -47 75 -165 3 -98 2 -109 -20 -141
-30 -44 -72 -59 -171 -59 -144 -1 -187 41 -187 186 0 152 40 193 188 193 47 0
96 -6 115 -14z"/>
<path d="M5243 2988 l2 -433 58 -3 57 -3 0 126 0 125 88 0 c96 1 144 14 198
55 l35 27 22 -20 c30 -27 76 -49 119 -57 l37 -7 3 58 3 59 -48 22 c-72 34 -77
53 -77 288 l0 195 -60 0 -60 0 0 -200 c0 -229 -4 -247 -71 -281 -33 -16 -54
-19 -112 -16 l-72 3 -3 247 -2 247 -60 0 -59 0 2 -432z"/>
<path d="M5990 3360 l0 -60 60 0 60 0 0 -250 0 -250 60 0 60 0 0 250 0 251 68
-3 67 -3 3 -248 2 -248 58 3 57 3 2 245 2 245 60 3 61 3 0 59 0 60 -310 0
-310 0 0 -60z"/>
<path d="M6896 3405 c-56 -20 -107 -65 -136 -120 -32 -64 -41 -222 -16 -308
32 -111 133 -177 270 -177 80 0 133 15 179 51 l37 30 0 -41 0 -40 60 0 60 0 0
310 0 310 -207 0 c-151 -1 -219 -5 -247 -15z m334 -230 l0 -125 -37 -41 c-72
-80 -180 -109 -265 -72 -61 27 -78 66 -78 173 0 99 18 143 69 170 30 16 58 19
174 20 l137 0 0 -125z"/>
<path d="M7480 3252 l0 -167 143 -143 c107 -107 148 -142 167 -142 19 0 60 35
168 143 l142 142 0 168 0 167 -60 0 -60 0 0 -137 -1 -138 -93 -98 -94 -99 -96
95 -96 94 0 141 0 142 -60 0 -60 0 0 -168z"/>
<path d="M8220 3110 l0 -310 60 0 60 0 0 185 0 185 36 40 c20 22 60 51 90 66
93 46 205 24 241 -47 9 -17 13 -86 13 -226 l0 -203 60 0 60 0 0 208 c0 243 -7
276 -73 339 -58 55 -109 73 -210 73 -87 0 -150 -20 -194 -62 l-23 -21 0 41 0
42 -60 0 -60 0 0 -310z"/>
<path d="M9075 3403 c-146 -77 -148 -260 -4 -333 33 -17 59 -20 186 -20 81 0
158 -3 169 -6 30 -8 46 -47 34 -79 -16 -42 -17 -42 -277 -44 l-193 -1 0 -60 0
-60 220 0 c240 0 268 5 323 58 39 37 61 118 47 172 -13 49 -63 108 -107 126
-22 10 -80 14 -188 14 -153 0 -156 0 -181 25 -29 29 -26 58 8 88 18 15 44 17
220 17 l199 0 -3 58 -3 57 -210 2 c-176 2 -215 0 -240 -14z"/>
<path d="M1216 2965 c-3 -8 10 -22 30 -34 l35 -21 -57 -108 c-31 -59 -77 -144
-101 -189 -25 -46 -42 -83 -40 -83 3 0 60 75 127 168 67 92 126 171 130 175 4
5 27 -1 51 -13 31 -16 47 -20 59 -12 12 7 36 3 86 -13 127 -43 213 -56 384
-60 l165 -3 -150 8 c-233 12 -409 56 -622 155 -69 32 -93 40 -97 30z"/>
<path d="M2410 2849 c-30 -11 -91 -29 -135 -39 -44 -10 -72 -19 -63 -19 10 -1
51 6 93 16 41 9 77 14 79 12 2 -2 41 -60 86 -129 45 -69 80 -114 76 -100 -38
156 -72 280 -76 279 -3 0 -30 -9 -60 -20z"/>
</g>
</svg>
